<?xml version="1.0" encoding="UTF-8" standalone="no"?><!DOCTYPE svg PUBLIC "-//W3C//DTD SVG 1.1//EN" "http://www.w3.org/Graphics/SVG/1.1/DTD/svg11.dtd"><svg width="100%" height="100%" viewBox="0 0 10800 10800" version="1.1" xmlns="http://www.w3.org/2000/svg" xmlns:xlink="http://www.w3.org/1999/xlink" xml:space="preserve" xmlns:serif="http://www.serif.com/" style="fill-rule:evenodd;clip-rule:evenodd;stroke-linejoin:round;stroke-miterlimit:2;"><path d="M7544.63,7706.4c-0,-0 1076.33,-567.188 3045.23,645.367c0,-0 -1927.13,-1406.64 -3045.23,-645.367Z" style="fill:#272626;fill-rule:nonzero;"/><path d="M7562.38,7784.81c-0,-0 1096.07,-259.192 2838.85,1291.75c0,0 -1680.23,-1715.83 -2838.85,-1291.75Z" style="fill:#272626;fill-rule:nonzero;"/><path d="M7581.79,7870.52c-0,-0 1070.37,43.021 2528.41,1851.61c0,0 -1378.31,-1939.22 -2528.41,-1851.61Z" style="fill:#272626;fill-rule:nonzero;"/><path d="M4637.25,5921.15c-0,-0 53.387,-910.183 -374.975,-1102.48c-487.158,-218.7 -825.729,292.371 -825.729,292.371c-0,-0 273.412,902.787 1125.31,558.279c17.996,-7.267 75.392,251.825 75.392,251.825Z" style="fill:#272626;fill-rule:nonzero;"/><path d="M3997.29,5509.1c177.634,63.284 375.625,8.775 541.2,-127.812c-157.658,194.191 -379.791,288.021 -573.645,218.908c-193.909,-69.142 -306.592,-282.267 -305.888,-532.425c41.904,210.521 160.729,378.021 338.333,441.329Z" style="fill:#fff;fill-rule:nonzero;"/><path d="M6105.04,7976.48c-0,0 -1090.62,-82.083 -1054.82,523.1c35.804,605.179 929.921,977.863 929.921,977.863c-0,-0 128.254,95.079 128.541,200.6c-0.287,-105.521 127.213,-201.304 127.213,-201.304c-0,-0 890.208,-377.63 922.867,-982.992c32.629,-605.367 -1053.72,-517.267 -1053.72,-517.267Z" style="fill:#272626;fill-rule:nonzero;"/><path d="M6995.42,8704.19c-30.73,-60.184 -180.025,-41.9 -333.409,40.833c-153.412,82.787 -252.841,198.646 -222.083,258.879c30.725,60.183 180.025,41.9 333.408,-40.858c153.413,-82.763 252.838,-198.621 222.084,-258.854Z" style="fill:#fff;fill-rule:nonzero;"/><path d="M5210.79,8709.15c30.441,-60.363 179.816,-42.917 333.645,39.012c153.855,81.925 253.855,197.238 223.438,257.605c-30.442,60.387 -179.792,42.916 -333.646,-39.013c-153.829,-81.875 -253.854,-197.212 -223.437,-257.604Z" style="fill:#fff;fill-rule:nonzero;"/><path d="M4038.31,6916.73c0,0 -1741.2,5315.67 2070.39,2983.83c-0,0 -3181.9,1556.33 -2070.39,-2983.83Z" style="fill:#272626;fill-rule:nonzero;"/><path d="M8516.25,8433.6c188.933,1358.26 -2.083,2921.38 -2408.88,1466.95c-0,0 2495.13,1148.46 2408.88,-1466.95Z" style="fill:#272626;fill-rule:nonzero;"/><path d="M6184.71,10321.8c183.513,-4.946 357.679,-29.321 515.546,-69.038c-128.75,93.7 -334.479,157.525 -567.787,163.829c-269.4,7.267 -505.938,-64.037 -631.613,-175.466c200.442,57.5 434.504,87.42 683.854,80.675Z" style="fill:#272626;fill-rule:nonzero;"/><path d="M7434.96,9439.69c-91.537,0.258 -91.171,140.908 0.363,140.7c82.396,-0.259 82.058,-140.938 -0.363,-140.7Z" style="fill:#272626;fill-rule:nonzero;"/><path d="M7370.21,9184.85c-73.229,0.209 -72.991,105.759 0.263,105.546c64.087,-0.179 63.8,-105.725 -0.263,-105.546Z" style="fill:#272626;fill-rule:nonzero;"/><path d="M7809.92,9289.19c-73.259,0.208 -72.971,105.704 0.283,105.491c73.229,-0.204 72.946,-105.7 -0.283,-105.491Z" style="fill:#272626;fill-rule:nonzero;"/><path d="M7728.58,9693.85c-54.95,0.154 -54.662,105.675 0.288,105.521c64.087,-0.183 63.8,-105.704 -0.288,-105.521Z" style="fill:#272626;fill-rule:nonzero;"/><path d="M7298.71,9844.52c-73.254,0.208 -72.996,105.729 0.259,105.521c73.229,-0.209 72.97,-105.729 -0.259,-105.521Z" style="fill:#272626;fill-rule:nonzero;"/><path d="M7096.42,9519.73c-82.396,0.234 -81.98,158.517 0.416,158.309c109.871,-0.313 109.454,-158.596 -0.416,-158.309Z" style="fill:#272626;fill-rule:nonzero;"/><path d="M7653.79,9096.15c-64.088,0.183 -63.88,88.1 0.208,87.917c73.254,-0.209 72.996,-88.125 -0.208,-87.917Z" style="fill:#272626;fill-rule:nonzero;"/><path d="M4770.75,9447.06c91.567,-0.234 91.929,140.416 0.367,140.679c-91.538,0.258 -91.9,-140.417 -0.367,-140.679Z" style="fill:#272626;fill-rule:nonzero;"/><path d="M4852.46,9191.85c54.95,-0.154 55.234,105.392 0.288,105.521c-82.396,0.233 -82.659,-105.312 -0.288,-105.521Z" style="fill:#272626;fill-rule:nonzero;"/><path d="M4404.17,9298.6c54.925,-0.154 55.208,105.367 0.262,105.521c-73.229,0.208 -73.517,-105.312 -0.262,-105.521Z" style="fill:#272626;fill-rule:nonzero;"/><path d="M4478.46,9702.85c54.95,-0.158 55.213,105.367 0.263,105.496c-54.921,0.154 -55.184,-105.337 -0.263,-105.496Z" style="fill:#272626;fill-rule:nonzero;"/><path d="M4909.13,9851.15c54.95,-0.158 55.208,105.362 0.287,105.521c-54.925,0.154 -55.208,-105.367 -0.287,-105.521Z" style="fill:#272626;fill-rule:nonzero;"/><path d="M5109.71,9525.23c82.396,-0.208 82.813,158.071 0.417,158.309c-109.871,0.283 -110.263,-157.996 -0.417,-158.309Z" style="fill:#272626;fill-rule:nonzero;"/><path d="M4550.13,9104.77c64.087,-0.179 64.321,87.737 0.233,87.917c-73.258,0.208 -73.466,-87.709 -0.233,-87.917Z" style="fill:#272626;fill-rule:nonzero;"/><path d="M2769.53,1803.61c0,0 -2572.92,1598.7 -2727.87,2830.11c0,-0 -401.82,985.887 1959.12,2650.16c0,-0 -1917.42,-1565.08 -1361.85,-2880.37c555.6,-1315.29 2130.6,-2599.9 2130.6,-2599.9Z" style="fill:#272626;fill-rule:nonzero;"/><path d="M2759.16,7020.94c-127.291,-130.759 -215.625,-291.513 -274.087,-451.25c-1.25,-27.917 -2.525,-55.834 -3.904,-83.75c-6.017,-131.592 -17.084,-262.738 -28.909,-393.75c-12.212,-130.992 -28.308,-261.488 -45.05,-391.875c-8.854,-64.871 -18.779,-130.446 -28.645,-194.846c-9.509,-61.25 -16.567,-121.017 -22.113,-182.059c-12.058,-121.537 -15.492,-244.295 -12.733,-367.37c1.746,-123.175 11.9,-246.588 26.096,-370.075c14.166,-123.492 35.308,-246.667 59.529,-369.767c12.316,-61.508 26.433,-122.758 40.962,-184.063c14.454,-61.354 30.159,-122.5 47.084,-183.462c66.745,-244.167 149.712,-485.783 243.541,-725.029c94.063,-239.346 198.517,-476.117 315,-710.988c-90.258,95.575 -172.708,198.596 -250.283,304.975c-77.867,106.3 -150.367,216.667 -218.854,329.767c-136.434,226.533 -254.325,465.492 -351.017,714.658c-23.933,62.346 -46.667,125.288 -68.125,188.829c-21.433,63.517 -40.521,127.892 -58.829,192.605c-36.9,129.429 -65.625,261.537 -88.438,395.183c-22.916,133.671 -36.25,269.4 -43.279,405.883c-5.887,136.592 -2.579,274.063 9.217,411.25c6.483,68.309 15.783,137.475 26.85,204.509l30.337,190.387c20.963,126.667 39.117,253.75 57.475,380.758c18.8,127.005 34.584,254.296 51.25,381.534c8.1,63.621 15.313,127.371 22.605,191.096c7.629,63.695 14.608,127.445 21.041,191.275c26.379,255.104 46.954,510.937 54.763,766.979c3.858,127.996 3.933,256.096 -4.088,383.541c-4.454,63.621 -10.596,127.242 -22.471,189.713c-11.929,62.267 -27.187,125.262 -66.512,177.917c27.421,-18.542 49.429,-45.259 68.021,-73.175c18.7,-28.046 34.712,-57.867 49.087,-88.284c28.046,-61.225 49.95,-124.791 68.413,-188.983c37.083,-128.517 61.146,-259.583 80.104,-390.883c33.958,-243.675 46.587,-464.638 48.308,-709.167c48.829,63.046 129.817,138.125 202.238,195.833c451.696,359.921 696.487,950.675 696.487,950.675c0,0 -115.862,-559.479 -631.071,-1088.59Z" style="fill:#272626;fill-rule:nonzero;"/><path d="M3940.65,5108.44c0.129,46.77 -30.313,84.762 -67.996,84.866c-37.658,0.109 -68.308,-37.733 -68.437,-84.504c-0.13,-46.771 30.312,-84.767 67.991,-84.871c37.684,-0.104 68.309,37.738 68.442,84.509Z" style="fill:#fff;fill-rule:nonzero;"/><path d="M8865.88,3267.77c-246.304,-55.387 -705.421,-450.362 -393.154,-1083.83c-0,-0 514.062,-1022.42 1460.91,-1523.3c145.779,-77.138 286.538,-60.809 357.421,88.125c182.008,382.421 414.013,1246.9 -16.692,2809.25c0,-0 -389.191,437.808 -547.266,-109.43c-118.567,-410.441 -456.042,-294.166 -617.367,-210.362c-74.925,38.929 -161.487,48.071 -243.854,29.554Zm736.771,3430.52c-0,-70.833 246.533,-130.417 581.562,-148.071c27.967,-78.492 54.113,-160.367 77.496,-245.392c-44.921,1.2 -90.725,1.875 -137.396,1.875c-546.691,0 -989.921,-86.304 -989.921,-192.758c0,-106.487 443.23,-192.787 989.921,-192.787c75.054,-0 148.025,1.691 218.284,4.766c12.058,-79.429 21.3,-160.758 27.291,-243.804c-395.183,-8.254 -702.966,-73.383 -702.966,-152.55c-0,-79.583 311.145,-145 709.425,-152.683c-3.125,-104.013 -11.717,-210.054 -26.925,-317.892c-0,0 -168.1,-676.404 28.67,-1164.92c172.188,-427.45 716.405,-2123.2 173.334,-3278.75c-122.813,-261.354 -476.588,-378.05 -790.992,-197.291c-375.754,216.066 -996.146,611.641 -1740.88,1559.53c-0,-0 -419.792,-189.034 -1028.39,-274.738c-9.946,489.688 -79.062,869.009 -162.837,869.009c-85.704,-0 -156.042,-396.642 -163.463,-902.396c-58.879,-3.696 -118.933,-6.221 -180.025,-7.342c7.292,119.217 11.325,248.879 11.325,384.688c0,582.187 -73.487,1054.14 -164.112,1054.14c-90.65,0 -164.117,-471.954 -164.117,-1054.14c0,-133.255 3.908,-260.625 10.913,-377.996c-59.35,3.671 -119.296,8.775 -179.817,15.6c-8.571,498.616 -78.388,887.446 -163.229,887.446c-81.85,-0 -149.688,-361.667 -162.084,-834.663c-293.283,62.396 -593.075,168.025 -885.962,334.325c-0,0 -726.096,-468.487 -1499.8,-546.612c0,-0 638.233,91.145 804.717,489.504c108.933,260.6 53.333,498.566 92.004,711.508c69.921,384.975 409.608,667.267 800.625,652.45c2.446,-0.104 4.921,-0.183 7.396,-0.312c1405.34,-63.855 1917.08,1287.94 1905.7,2543.12c-13.021,1435.1 2503.7,292.812 2661.85,1674.4c-0,-0 277.708,-255.705 507.004,-757.346c-273.879,-24.034 -464.608,-77.629 -464.608,-139.921Z" style="fill:#272626;fill-rule:nonzero;"/><path d="M7345.04,5691.35c-0,0 -12.371,-30.233 -23.83,-86.433c-11.279,-55.988 -22.137,-138.567 -11.85,-239.063c10.159,-99.425 43.15,-220.366 123.28,-326.537c39.116,-52.996 88.05,-102.888 145.912,-141.042c56.667,-40.387 120.6,-69.45 185.208,-93.462c65.655,-20.834 132.425,-36.146 198.205,-43.959c65.729,-10.233 130.704,-9.375 192.758,-9.141c31.017,1.487 61.487,1.954 91.2,4.221c29.454,3.62 58.229,7.162 86.304,10.6c56.171,5.233 107.758,18.854 155.729,27.837c47.784,10 90.65,23.279 128.75,33.696c38.279,9.583 70.442,22.867 97.292,31.85c53.408,19.217 83.383,31.354 83.383,31.354c0,0 -32.629,-1.225 -88.829,-5.417c-55.987,-5.362 -136.196,-9.4 -230.937,-15.704c-47.63,-0.441 -98.8,-5.154 -152.709,-4.45c-26.875,-0.029 -54.479,-0.054 -82.708,-0.079c-28.1,2.004 -56.667,2.213 -85.675,3.383c-57.867,3.1 -117.188,9.821 -176.042,19.117c-59.271,8.358 -117.396,23.75 -173.437,42.604c-55.625,19.246 -110,42.238 -156.9,74.246c-47.659,30.7 -91.513,65.7 -126.175,107.421c-34.792,41.196 -65.754,84.792 -87.604,131.042c-21.846,46.041 -39.971,91.979 -52.134,136.354c-24.191,88.775 -33.204,167.758 -36.721,223.308c-3.854,55.7 -2.47,88.254 -2.47,88.254Z" style="fill:#fff;fill-rule:nonzero;"/><path d="M7591.33,5382.69c0,-0 513.7,470.366 742.709,-272.317c-0,-0 -198.071,557.008 -742.709,272.317Z" style="fill:#fff;fill-rule:nonzero;"/><path d="M7635.04,5138.23c-0,45.288 36.716,82.009 82.004,82.009c45.312,-0 82.033,-36.721 82.033,-82.009c0,-45.283 -36.721,-82.004 -82.033,-82.004c-45.288,0 -82.004,36.721 -82.004,82.004Z" style="fill:#fff;fill-rule:nonzero;"/><path d="M7415.83,5572.19c0,-0 827.579,605.054 1234.17,-634.713c-0,0 -339.504,1046.49 -1234.17,634.713Z" style="fill:#fff;fill-rule:nonzero;"/><path d="M7435.21,4562.98c0,0 315.238,-661.691 913.229,-583.541c0,-0 -596.3,-160.705 -913.229,583.541Z" style="fill:#fff;fill-rule:nonzero;"/><path d="M7508.25,4526.4c-0,-0 394.112,-462.133 981.587,-293.517c0,0 -563.725,-232.579 -981.587,293.517Z" style="fill:#fff;fill-rule:nonzero;"/></svg>